<?xml version="1.0" encoding="utf-8"?>
<!-- Generator: Adobe Illustrator 25.2.2, SVG Export Plug-In . SVG Version: 6.00 Build 0)  -->
<svg version="1.1" id="Layer_1" xmlns="http://www.w3.org/2000/svg" xmlns:xlink="http://www.w3.org/1999/xlink" x="0px" y="0px"
	 viewBox="0 0 333.7 66.22" style="enable-background:new 0 0 333.7 66.22;" xml:space="preserve">
<style type="text/css">
	.st0{fill:url(#SVGID_1_);}
	.st1{fill:url(#SVGID_2_);}
	.st2{fill:url(#SVGID_3_);}
	.st3{fill:url(#SVGID_4_);}
	.st4{fill:url(#SVGID_5_);}
	.st5{fill:url(#SVGID_6_);}
	.st6{fill:url(#SVGID_7_);}
	.st7{fill:url(#SVGID_8_);}
	.st8{fill:url(#SVGID_9_);}
	.st9{fill:url(#SVGID_10_);}
</style>
<g>
	<polygon points="38.71,4.47 2.55,4.47 2.55,12.38 15.82,12.38 15.82,50.35 25.42,50.35 25.42,12.38 38.71,12.38 	"/>
	<linearGradient id="SVGID_1_" gradientUnits="userSpaceOnUse" x1="-21.4184" y1="27.4099" x2="347.8899" y2="27.4099">
		<stop  offset="0" style="stop-color:#1798CA"/>
		<stop  offset="0.1194" style="stop-color:#198EC8"/>
		<stop  offset="0.3229" style="stop-color:#2073C2"/>
		<stop  offset="0.5839" style="stop-color:#2A47B8"/>
		<stop  offset="0.7851" style="stop-color:#3321AF"/>
	</linearGradient>
	<polygon class="st0" points="38.71,4.47 2.55,4.47 2.55,12.38 15.82,12.38 15.82,50.35 25.42,50.35 25.42,12.38 38.71,12.38 	"/>
	<path d="M54.39,42.91H54.2l-7.25-26.65H36.77l11.86,34.09c0.03,0.16-0.32,1.49-0.32,1.65c-0.64,2.7-2.32,3.78-5.69,3.78
		c-0.35,0-2.04-0.03-2.35-0.1v7.19c0.32,0.06,3.18,0.1,3.53,0.1c8.68,0,12.97-3.15,15.87-11.89L71.4,16.26h-9.79L54.39,42.91z"/>
	<linearGradient id="SVGID_2_" gradientUnits="userSpaceOnUse" x1="-21.4184" y1="39.6211" x2="347.8899" y2="39.6211">
		<stop  offset="0" style="stop-color:#1798CA"/>
		<stop  offset="0.1194" style="stop-color:#198EC8"/>
		<stop  offset="0.3229" style="stop-color:#2073C2"/>
		<stop  offset="0.5839" style="stop-color:#2A47B8"/>
		<stop  offset="0.7851" style="stop-color:#3321AF"/>
	</linearGradient>
	<path class="st1" d="M54.39,42.91H54.2l-7.25-26.65H36.77l11.86,34.09c0.03,0.16-0.32,1.49-0.32,1.65
		c-0.64,2.7-2.32,3.78-5.69,3.78c-0.35,0-2.04-0.03-2.35-0.1v7.19c0.32,0.06,3.18,0.1,3.53,0.1c8.68,0,12.97-3.15,15.87-11.89
		L71.4,16.26h-9.79L54.39,42.91z"/>
	<rect x="75.03" y="4.47" width="9.29" height="45.89"/>
	<linearGradient id="SVGID_3_" gradientUnits="userSpaceOnUse" x1="-21.4184" y1="27.4099" x2="347.8899" y2="27.4099">
		<stop  offset="0" style="stop-color:#1798CA"/>
		<stop  offset="0.1194" style="stop-color:#198EC8"/>
		<stop  offset="0.3229" style="stop-color:#2073C2"/>
		<stop  offset="0.5839" style="stop-color:#2A47B8"/>
		<stop  offset="0.7851" style="stop-color:#3321AF"/>
	</linearGradient>
	<rect x="75.03" y="4.47" class="st2" width="9.29" height="45.89"/>
	<path d="M105.78,15.53c-10.08,0-16.44,7.06-16.44,17.94c0,10.91,6.3,17.62,16.79,17.62c8.43,0,14.53-4.48,15.55-11.16h-8.52
		c-0.86,2.61-3.47,4.29-6.87,4.29c-4.74,0-7.82-3.34-7.82-8.2v-0.57h23.5v-2.83C121.96,22.24,115.7,15.53,105.78,15.53z
		 M98.56,29.75c0.32-4.26,3.24-7.35,7.31-7.35c4.13,0,6.96,2.99,7.15,7.35H98.56z"/>
	<linearGradient id="SVGID_4_" gradientUnits="userSpaceOnUse" x1="-21.4184" y1="33.3088" x2="347.8899" y2="33.3088">
		<stop  offset="0" style="stop-color:#1798CA"/>
		<stop  offset="0.1194" style="stop-color:#198EC8"/>
		<stop  offset="0.3229" style="stop-color:#2073C2"/>
		<stop  offset="0.5839" style="stop-color:#2A47B8"/>
		<stop  offset="0.7851" style="stop-color:#3321AF"/>
	</linearGradient>
	<path class="st3" d="M105.78,15.53c-10.08,0-16.44,7.06-16.44,17.94c0,10.91,6.3,17.62,16.79,17.62c8.43,0,14.53-4.48,15.55-11.16
		h-8.52c-0.86,2.61-3.47,4.29-6.87,4.29c-4.74,0-7.82-3.34-7.82-8.2v-0.57h23.5v-2.83C121.96,22.24,115.7,15.53,105.78,15.53z
		 M98.56,29.75c0.32-4.26,3.24-7.35,7.31-7.35c4.13,0,6.96,2.99,7.15,7.35H98.56z"/>
	<path d="M135.89,22.4h-0.19v-6.14h-8.97v34.09h9.29V31.31c0-4.8,2.67-7.6,7.25-7.6c1.34,0,2.61,0.22,3.37,0.54v-8.17
		c-0.64-0.19-1.56-0.35-2.64-0.35C139.99,15.72,137.1,18.08,135.89,22.4z"/>
	<linearGradient id="SVGID_5_" gradientUnits="userSpaceOnUse" x1="-21.4184" y1="33.0385" x2="347.8899" y2="33.0385">
		<stop  offset="0" style="stop-color:#1798CA"/>
		<stop  offset="0.1194" style="stop-color:#198EC8"/>
		<stop  offset="0.3229" style="stop-color:#2073C2"/>
		<stop  offset="0.5839" style="stop-color:#2A47B8"/>
		<stop  offset="0.7851" style="stop-color:#3321AF"/>
	</linearGradient>
	<path class="st4" d="M135.89,22.4h-0.19v-6.14h-8.97v34.09h9.29V31.31c0-4.8,2.67-7.6,7.25-7.6c1.34,0,2.61,0.22,3.37,0.54v-8.17
		c-0.64-0.19-1.56-0.35-2.64-0.35C139.99,15.72,137.1,18.08,135.89,22.4z"/>
	<polygon points="197.97,4.47 161.81,4.47 161.81,12.38 175.07,12.38 175.07,50.35 184.67,50.35 184.67,12.38 197.97,12.38 	"/>
	<linearGradient id="SVGID_6_" gradientUnits="userSpaceOnUse" x1="-21.4184" y1="27.4099" x2="347.8899" y2="27.4099">
		<stop  offset="0" style="stop-color:#1798CA"/>
		<stop  offset="0.1194" style="stop-color:#198EC8"/>
		<stop  offset="0.3229" style="stop-color:#2073C2"/>
		<stop  offset="0.5839" style="stop-color:#2A47B8"/>
		<stop  offset="0.7851" style="stop-color:#3321AF"/>
	</linearGradient>
	<polygon class="st5" points="197.97,4.47 161.81,4.47 161.81,12.38 175.07,12.38 175.07,50.35 184.67,50.35 184.67,12.38 
		197.97,12.38 	"/>
	<path d="M209.92,15.53c-9.03,0-14.66,4.55-15.01,11.16h8.49c0.45-2.51,2.64-4.23,6.11-4.23c3.5,0,5.72,1.84,5.72,5.02v2.26
		l-8.59,0.51c-8.49,0.51-13.26,4.1-13.26,10.3c0,6.14,4.93,10.33,11.42,10.33c4.26,0,8.49-2.13,10.4-5.76h0.19v5.22h8.97V26.92
		C224.36,20.05,218.67,15.53,209.92,15.53z M215.23,37.86c0,3.69-3.34,6.33-7.38,6.33c-3.15,0-5.25-1.59-5.25-4.13
		c0-2.42,1.97-3.97,5.44-4.23l7.19-0.45V37.86z"/>
	<linearGradient id="SVGID_7_" gradientUnits="userSpaceOnUse" x1="-21.4184" y1="33.2134" x2="347.8899" y2="33.2134">
		<stop  offset="0" style="stop-color:#1798CA"/>
		<stop  offset="0.1194" style="stop-color:#198EC8"/>
		<stop  offset="0.3229" style="stop-color:#2073C2"/>
		<stop  offset="0.5839" style="stop-color:#2A47B8"/>
		<stop  offset="0.7851" style="stop-color:#3321AF"/>
	</linearGradient>
	<path class="st6" d="M209.92,15.53c-9.03,0-14.66,4.55-15.01,11.16h8.49c0.45-2.51,2.64-4.23,6.11-4.23c3.5,0,5.72,1.84,5.72,5.02
		v2.26l-8.59,0.51c-8.49,0.51-13.26,4.1-13.26,10.3c0,6.14,4.93,10.33,11.42,10.33c4.26,0,8.49-2.13,10.4-5.76h0.19v5.22h8.97V26.92
		C224.36,20.05,218.67,15.53,209.92,15.53z M215.23,37.86c0,3.69-3.34,6.33-7.38,6.33c-3.15,0-5.25-1.59-5.25-4.13
		c0-2.42,1.97-3.97,5.44-4.23l7.19-0.45V37.86z"/>
	<path d="M245.57,15.53c-9.03,0-14.66,4.55-15.01,11.16h8.49c0.45-2.51,2.64-4.23,6.11-4.23c3.5,0,5.72,1.84,5.72,5.02v2.26
		l-8.59,0.51c-8.49,0.51-13.26,4.1-13.26,10.3c0,6.14,4.93,10.33,11.42,10.33c4.26,0,8.49-2.13,10.4-5.76h0.19v5.22h8.97V26.92
		C260.01,20.05,254.31,15.53,245.57,15.53z M250.88,37.86c0,3.69-3.34,6.33-7.38,6.33c-3.15,0-5.25-1.59-5.25-4.13
		c0-2.42,1.97-3.97,5.44-4.23l7.19-0.45V37.86z"/>
	<linearGradient id="SVGID_8_" gradientUnits="userSpaceOnUse" x1="-21.4184" y1="33.2134" x2="347.8899" y2="33.2134">
		<stop  offset="0" style="stop-color:#1798CA"/>
		<stop  offset="0.1194" style="stop-color:#198EC8"/>
		<stop  offset="0.3229" style="stop-color:#2073C2"/>
		<stop  offset="0.5839" style="stop-color:#2A47B8"/>
		<stop  offset="0.7851" style="stop-color:#3321AF"/>
	</linearGradient>
	<path class="st7" d="M245.57,15.53c-9.03,0-14.66,4.55-15.01,11.16h8.49c0.45-2.51,2.64-4.23,6.11-4.23c3.5,0,5.72,1.84,5.72,5.02
		v2.26l-8.59,0.51c-8.49,0.51-13.26,4.1-13.26,10.3c0,6.14,4.93,10.33,11.42,10.33c4.26,0,8.49-2.13,10.4-5.76h0.19v5.22h8.97V26.92
		C260.01,20.05,254.31,15.53,245.57,15.53z M250.88,37.86c0,3.69-3.34,6.33-7.38,6.33c-3.15,0-5.25-1.59-5.25-4.13
		c0-2.42,1.97-3.97,5.44-4.23l7.19-0.45V37.86z"/>
	<path d="M281.63,43.8c-4.61,0-7.47-3.82-7.47-10.53c0-6.58,2.86-10.46,7.44-10.46c3.82,0,6.2,2.54,6.74,6.14h8.62
		c-0.41-7.73-6.26-13.42-15.49-13.42c-10.21,0-16.73,6.81-16.73,17.74c0,11.13,6.52,17.81,16.79,17.81
		c8.97,0,14.98-5.18,15.45-13.23h-8.65C287.77,41.58,285.35,43.8,281.63,43.8z"/>
	<linearGradient id="SVGID_9_" gradientUnits="userSpaceOnUse" x1="-21.4184" y1="33.3088" x2="347.8899" y2="33.3088">
		<stop  offset="0" style="stop-color:#1798CA"/>
		<stop  offset="0.1194" style="stop-color:#198EC8"/>
		<stop  offset="0.3229" style="stop-color:#2073C2"/>
		<stop  offset="0.5839" style="stop-color:#2A47B8"/>
		<stop  offset="0.7851" style="stop-color:#3321AF"/>
	</linearGradient>
	<path class="st8" d="M281.63,43.8c-4.61,0-7.47-3.82-7.47-10.53c0-6.58,2.86-10.46,7.44-10.46c3.82,0,6.2,2.54,6.74,6.14h8.62
		c-0.41-7.73-6.26-13.42-15.49-13.42c-10.21,0-16.73,6.81-16.73,17.74c0,11.13,6.52,17.81,16.79,17.81
		c8.97,0,14.98-5.18,15.45-13.23h-8.65C287.77,41.58,285.35,43.8,281.63,43.8z"/>
	<path d="M316.71,15.53c-9.03,0-14.66,4.55-15.01,11.16h8.49c0.45-2.51,2.64-4.23,6.11-4.23c3.5,0,5.72,1.84,5.72,5.02v2.26
		l-8.59,0.51c-8.49,0.51-13.26,4.1-13.26,10.3c0,6.14,4.93,10.33,11.42,10.33c4.26,0,8.49-2.13,10.4-5.76h0.19v5.22h8.97V26.92
		C331.14,20.05,325.45,15.53,316.71,15.53z M322.02,37.86c0,3.69-3.34,6.33-7.38,6.33c-3.15,0-5.25-1.59-5.25-4.13
		c0-2.42,1.97-3.97,5.44-4.23l7.19-0.45V37.86z"/>
	<linearGradient id="SVGID_10_" gradientUnits="userSpaceOnUse" x1="-21.4184" y1="33.2134" x2="347.8899" y2="33.2134">
		<stop  offset="0" style="stop-color:#1798CA"/>
		<stop  offset="0.1194" style="stop-color:#198EC8"/>
		<stop  offset="0.3229" style="stop-color:#2073C2"/>
		<stop  offset="0.5839" style="stop-color:#2A47B8"/>
		<stop  offset="0.7851" style="stop-color:#3321AF"/>
	</linearGradient>
	<path class="st9" d="M316.71,15.53c-9.03,0-14.66,4.55-15.01,11.16h8.49c0.45-2.51,2.64-4.23,6.11-4.23c3.5,0,5.72,1.84,5.72,5.02
		v2.26l-8.59,0.51c-8.49,0.51-13.26,4.1-13.26,10.3c0,6.14,4.93,10.33,11.42,10.33c4.26,0,8.49-2.13,10.4-5.76h0.19v5.22h8.97V26.92
		C331.14,20.05,325.45,15.53,316.71,15.53z M322.02,37.86c0,3.69-3.34,6.33-7.38,6.33c-3.15,0-5.25-1.59-5.25-4.13
		c0-2.42,1.97-3.97,5.44-4.23l7.19-0.45V37.86z"/>
</g>
</svg>
